<?xml version="1.0" encoding="utf-8"?>
<!-- Generator: Adobe Illustrator 16.0.4, SVG Export Plug-In . SVG Version: 6.00 Build 0)  -->
<!DOCTYPE svg PUBLIC "-//W3C//DTD SVG 1.1//EN" "http://www.w3.org/Graphics/SVG/1.1/DTD/svg11.dtd">
<svg version="1.1" id="Layer_1" xmlns="http://www.w3.org/2000/svg" xmlns:xlink="http://www.w3.org/1999/xlink" x="0px" y="0px"
	 width="1015px" height="1015px" viewBox="0 0 1015 1015" enable-background="new 0 0 1015 1015" xml:space="preserve">
<g>
	
		<linearGradient id="SVGID_1_" gradientUnits="userSpaceOnUse" x1="254.4834" y1="791.6504" x2="740.2841" y2="322.2068" gradientTransform="matrix(1 0 0 -1 0 1016)">
		<stop  offset="0" style="stop-color:#DFF4FF"/>
		<stop  offset="0.0984" style="stop-color:#D6EAF5"/>
		<stop  offset="0.2678" style="stop-color:#BFD0D9"/>
		<stop  offset="0.4879" style="stop-color:#98A5AC"/>
		<stop  offset="0.7469" style="stop-color:#646B6E"/>
		<stop  offset="1" style="stop-color:#2B2B2B"/>
	</linearGradient>
	<path fill="url(#SVGID_1_)" d="M516.959,249.036C390.513,249.036,288,351.539,288,477.989
		c0,126.449,102.513,228.954,228.959,228.954c126.453,0,228.957-102.505,228.957-228.954
		C745.916,351.539,643.412,249.036,516.959,249.036z M516.959,695.493c-120.13,0-217.501-97.378-217.501-217.504
		c0-120.124,97.371-217.508,217.501-217.508c120.128,0,217.508,97.383,217.508,217.508
		C734.467,598.115,637.087,695.493,516.959,695.493z"/>
	<path fill="#333333" d="M736.106,477.989c0,121.022-98.125,219.144-219.147,219.144c-121.025,0-219.14-98.122-219.14-219.144
		c0-121.028,98.115-219.144,219.14-219.144C637.981,258.845,736.106,356.96,736.106,477.989z"/>
	
		<radialGradient id="SVGID_2_" cx="285.1455" cy="751.8223" r="325.2875" gradientTransform="matrix(1 0 0 -1 0 1016)" gradientUnits="userSpaceOnUse">
		<stop  offset="0" style="stop-color:#FFFFFF"/>
		<stop  offset="0.3064" style="stop-color:#A8A8A8"/>
		<stop  offset="0.6461" style="stop-color:#4F4F4F"/>
		<stop  offset="0.8853" style="stop-color:#161616"/>
		<stop  offset="1" style="stop-color:#000000"/>
	</radialGradient>
	<path fill="url(#SVGID_2_)" d="M734.467,477.989c0,120.126-97.38,217.504-217.508,217.504
		c-120.13,0-217.501-97.378-217.501-217.504c0-120.124,97.371-217.508,217.501-217.508
		C637.087,260.481,734.467,357.865,734.467,477.989z"/>
	
		<linearGradient id="SVGID_3_" gradientUnits="userSpaceOnUse" x1="650.8477" y1="262.2241" x2="960.2531" y2="-36.7636" gradientTransform="matrix(-1 0 0 1 1334.9766 377.3057)">
		<stop  offset="0" style="stop-color:#DFF4FF"/>
		<stop  offset="0.0855" style="stop-color:#D6EAF5"/>
		<stop  offset="0.2327" style="stop-color:#BED0D9"/>
		<stop  offset="0.4239" style="stop-color:#96A4AC"/>
		<stop  offset="0.6516" style="stop-color:#5F686D"/>
		<stop  offset="0.9075" style="stop-color:#1A1D1E"/>
		<stop  offset="1" style="stop-color:#000000"/>
	</linearGradient>
	<path fill="url(#SVGID_3_)" d="M662.781,477.989c0,80.533-65.287,145.817-145.822,145.817
		c-80.537,0-145.824-65.284-145.824-145.817c0-80.536,65.287-145.822,145.824-145.822
		C597.494,332.167,662.781,397.453,662.781,477.989z"/>
	<polygon points="522.799,328.226 537.947,288.079 537.947,328.226 549.451,328.226 549.451,270.728 532.162,270.728 
		516.437,311.896 516.586,311.896 500.86,270.728 483.571,270.728 483.571,328.226 495.075,328.226 495.075,288.079 
		510.223,328.226 	"/>
	<polygon points="680.686,354.008 661.028,382.669 691.903,367.484 700.276,377.526 651.687,401.924 641.867,390.038 
		660.703,361.639 660.592,361.498 629.262,374.908 619.331,363.102 652.095,319.716 660.471,329.764 639.955,357.391 
		671.705,343.229 	"/>
	<path fill="#333333" d="M415.126,343.024c-4.631-4.495-11.776-5.85-18.493-1.686c1.286-3.327,0.764-6.712,0.084-8.59
		c-2.897-5.268-3.913-5.934-6.278-7.933c-7.723-6.47-15.847-0.945-21.651,5.972l-28.059,33.439l44.11,37.007l29.588-35.256
		C421.19,357.921,422.234,349.933,415.126,343.024z M358.064,359.151l16.854-20.085c1.956-2.324,6.372-2.231,9.204,0.154
		c3.121,2.618,3.129,6.325,1.034,8.827l-16.667,19.853L358.064,359.151z M404.562,362.49l-17.57,20.938l-11.002-9.247l17.701-21.1
		c2.003-2.386,6.466-3.08,9.475-0.555C406.555,355.378,406.89,359.714,404.562,362.49z"/>
	
		<radialGradient id="SVGID_4_" cx="226.7227" cy="784.9473" r="781.6248" gradientTransform="matrix(1 0 0 -1 0 1016)" gradientUnits="userSpaceOnUse">
		<stop  offset="0" style="stop-color:#FFFFFF"/>
		<stop  offset="0.3102" style="stop-color:#FDFDFD"/>
		<stop  offset="0.4505" style="stop-color:#F6F6F6"/>
		<stop  offset="0.5567" style="stop-color:#E9E9E9"/>
		<stop  offset="0.6456" style="stop-color:#D7D7D7"/>
		<stop  offset="0.7238" style="stop-color:#BFBFBF"/>
		<stop  offset="0.7944" style="stop-color:#A2A2A2"/>
		<stop  offset="0.8593" style="stop-color:#808080"/>
		<stop  offset="0.9199" style="stop-color:#575757"/>
		<stop  offset="0.9746" style="stop-color:#2B2B2B"/>
		<stop  offset="1" style="stop-color:#141414"/>
	</radialGradient>
	<polygon fill="url(#SVGID_4_)" points="522.921,326.005 538.068,285.858 538.068,326.005 549.574,326.005 549.574,268.507 
		532.283,268.507 516.558,309.673 516.707,309.673 500.981,268.507 483.69,268.507 483.69,326.005 495.196,326.005 495.196,285.858 
		510.344,326.005 	"/>
	
		<radialGradient id="SVGID_5_" cx="226.6929" cy="784.9463" r="781.6797" gradientTransform="matrix(1 0 0 -1 0 1016)" gradientUnits="userSpaceOnUse">
		<stop  offset="0" style="stop-color:#FFFFFF"/>
		<stop  offset="0.3102" style="stop-color:#FDFDFD"/>
		<stop  offset="0.4505" style="stop-color:#F6F6F6"/>
		<stop  offset="0.5567" style="stop-color:#E9E9E9"/>
		<stop  offset="0.6456" style="stop-color:#D7D7D7"/>
		<stop  offset="0.7238" style="stop-color:#BFBFBF"/>
		<stop  offset="0.7944" style="stop-color:#A2A2A2"/>
		<stop  offset="0.8593" style="stop-color:#808080"/>
		<stop  offset="0.9199" style="stop-color:#575757"/>
		<stop  offset="0.9746" style="stop-color:#2B2B2B"/>
		<stop  offset="1" style="stop-color:#141414"/>
	</radialGradient>
	<polygon fill="url(#SVGID_5_)" points="680.798,350.15 661.15,378.812 692.023,363.623 700.39,373.669 651.805,398.067 
		641.987,386.176 660.824,357.781 660.713,357.637 629.373,371.052 619.453,359.239 652.217,315.859 660.592,325.902 
		640.078,353.529 671.816,339.373 	"/>
	
		<radialGradient id="SVGID_6_" cx="226.6494" cy="785.1777" r="782.2794" gradientTransform="matrix(1 0 0 -1 0 1016)" gradientUnits="userSpaceOnUse">
		<stop  offset="0" style="stop-color:#FFFFFF"/>
		<stop  offset="0.3102" style="stop-color:#FDFDFD"/>
		<stop  offset="0.4505" style="stop-color:#F6F6F6"/>
		<stop  offset="0.5567" style="stop-color:#E9E9E9"/>
		<stop  offset="0.6456" style="stop-color:#D7D7D7"/>
		<stop  offset="0.7238" style="stop-color:#BFBFBF"/>
		<stop  offset="0.7944" style="stop-color:#A2A2A2"/>
		<stop  offset="0.8593" style="stop-color:#808080"/>
		<stop  offset="0.9199" style="stop-color:#575757"/>
		<stop  offset="0.9746" style="stop-color:#2B2B2B"/>
		<stop  offset="1" style="stop-color:#141414"/>
	</radialGradient>
	<path fill="url(#SVGID_6_)" d="M413.066,341.893c-4.621-4.495-11.775-5.851-18.482-1.691c1.276-3.327,0.755-6.712,0.075-8.581
		c-2.898-5.277-3.904-5.934-6.29-7.937c-7.722-6.475-15.836-0.946-21.631,5.977l-28.069,33.435l44.112,37.007l29.587-35.26
		C419.123,356.784,420.174,348.801,413.066,341.893z M356.006,358.019l16.853-20.081c1.948-2.329,6.363-2.235,9.205,0.144
		c3.121,2.623,3.13,6.334,1.024,8.827l-16.656,19.857L356.006,358.019z M402.512,361.358l-17.57,20.938l-11.021-9.247l17.711-21.105
		c2.002-2.38,6.456-3.074,9.465-0.549C404.506,354.25,404.841,358.578,402.512,361.358z"/>
	
		<radialGradient id="SVGID_7_" cx="366.7139" cy="676.5859" r="210.8255" gradientTransform="matrix(1 0 0 -1 0 1016)" gradientUnits="userSpaceOnUse">
		<stop  offset="0" style="stop-color:#E6E6E6"/>
		<stop  offset="0.1045" style="stop-color:#D6D6D6"/>
		<stop  offset="0.3074" style="stop-color:#ADADAD"/>
		<stop  offset="0.5884" style="stop-color:#6C6C6C"/>
		<stop  offset="0.9335" style="stop-color:#121212"/>
		<stop  offset="1" style="stop-color:#000000"/>
	</radialGradient>
	<path fill="url(#SVGID_7_)" d="M375.99,477.991c0-77.857,63.116-140.973,140.969-140.973c77.861,0,140.969,63.116,140.969,140.973
		c0,77.855-63.107,140.968-140.969,140.968C439.105,618.959,375.99,555.846,375.99,477.991z"/>
	
		<radialGradient id="SVGID_8_" cx="424.377" cy="648.2305" r="306.6004" gradientTransform="matrix(1 0 0 -1 0 1016)" gradientUnits="userSpaceOnUse">
		<stop  offset="0" style="stop-color:#FFFFFF"/>
		<stop  offset="0.3435" style="stop-color:#FDFDFD"/>
		<stop  offset="0.4814" style="stop-color:#F6F6F6"/>
		<stop  offset="0.5824" style="stop-color:#EAEAEA"/>
		<stop  offset="0.6654" style="stop-color:#D8D8D8"/>
		<stop  offset="0.7373" style="stop-color:#C2C2C2"/>
		<stop  offset="0.8016" style="stop-color:#A6A6A6"/>
		<stop  offset="0.8602" style="stop-color:#848484"/>
		<stop  offset="0.9126" style="stop-color:#5F5F5F"/>
		<stop  offset="0.9494" style="stop-color:#404040"/>
		<stop  offset="0.9566" style="stop-color:#404040"/>
		<stop  offset="1" style="stop-color:#404040"/>
		<stop  offset="1" style="stop-color:#000000"/>
	</radialGradient>
	<path fill="url(#SVGID_8_)" d="M380.042,477.991c0-75.617,61.299-136.921,136.917-136.921c75.617,0,136.925,61.304,136.925,136.921
		c0,75.619-61.308,136.922-136.925,136.922C441.341,614.913,380.042,553.609,380.042,477.991z"/>
	
		<radialGradient id="SVGID_9_" cx="334.355" cy="764.4541" r="542.9943" gradientTransform="matrix(1 0 0 -1 0 1016)" gradientUnits="userSpaceOnUse">
		<stop  offset="0.1685" style="stop-color:#FFFFFF"/>
		<stop  offset="0.1957" style="stop-color:#E0EFF7"/>
		<stop  offset="0.2406" style="stop-color:#B2D9EC"/>
		<stop  offset="0.2872" style="stop-color:#8BC5E2"/>
		<stop  offset="0.335" style="stop-color:#6BB5DA"/>
		<stop  offset="0.3844" style="stop-color:#52A9D4"/>
		<stop  offset="0.4359" style="stop-color:#41A0CF"/>
		<stop  offset="0.4911" style="stop-color:#369BCD"/>
		<stop  offset="0.5562" style="stop-color:#3399CC"/>
		<stop  offset="0.606" style="stop-color:#3396C8"/>
		<stop  offset="0.6553" style="stop-color:#328EBC"/>
		<stop  offset="0.7045" style="stop-color:#3180A8"/>
		<stop  offset="0.7536" style="stop-color:#2F6D8C"/>
		<stop  offset="0.8027" style="stop-color:#2D5468"/>
		<stop  offset="0.8512" style="stop-color:#2A373D"/>
		<stop  offset="0.8708" style="stop-color:#292929"/>
	</radialGradient>
	<path fill="url(#SVGID_9_)" d="M379.828,477.991h137.131V340.86C441.219,340.86,379.828,402.252,379.828,477.991z"/>
	
		<radialGradient id="SVGID_10_" cx="334.3545" cy="764.457" r="542.9842" gradientTransform="matrix(1 0 0 -1 0 1016)" gradientUnits="userSpaceOnUse">
		<stop  offset="0.1685" style="stop-color:#FFFFFF"/>
		<stop  offset="0.1957" style="stop-color:#E0EFF7"/>
		<stop  offset="0.2406" style="stop-color:#B2D9EC"/>
		<stop  offset="0.2872" style="stop-color:#8BC5E2"/>
		<stop  offset="0.335" style="stop-color:#6BB5DA"/>
		<stop  offset="0.3844" style="stop-color:#52A9D4"/>
		<stop  offset="0.4359" style="stop-color:#41A0CF"/>
		<stop  offset="0.4911" style="stop-color:#369BCD"/>
		<stop  offset="0.5562" style="stop-color:#3399CC"/>
		<stop  offset="0.606" style="stop-color:#3396C8"/>
		<stop  offset="0.6553" style="stop-color:#328EBC"/>
		<stop  offset="0.7045" style="stop-color:#3180A8"/>
		<stop  offset="0.7536" style="stop-color:#2F6D8C"/>
		<stop  offset="0.8027" style="stop-color:#2D5468"/>
		<stop  offset="0.8512" style="stop-color:#2A373D"/>
		<stop  offset="0.8708" style="stop-color:#292929"/>
	</radialGradient>
	<path fill="url(#SVGID_10_)" d="M516.959,477.991v137.132c75.738,0,137.131-61.403,137.131-137.132H516.959L516.959,477.991z"/>
	
		<radialGradient id="SVGID_11_" cx="369.5918" cy="673.9307" r="206.7852" gradientTransform="matrix(1 0 0 -1 0 1016)" gradientUnits="userSpaceOnUse">
		<stop  offset="0" style="stop-color:#E6E6E6"/>
		<stop  offset="0.1045" style="stop-color:#D6D6D6"/>
		<stop  offset="0.3074" style="stop-color:#ADADAD"/>
		<stop  offset="0.5884" style="stop-color:#6C6C6C"/>
		<stop  offset="0.9335" style="stop-color:#121212"/>
		<stop  offset="1" style="stop-color:#000000"/>
	</radialGradient>
	<polygon fill="url(#SVGID_11_)" points="655.225,475.554 519.39,475.554 519.39,339.718 514.525,339.718 514.525,475.554 
		378.69,475.554 378.69,480.418 514.525,480.418 514.525,616.258 519.39,616.258 519.39,480.418 655.225,480.418 	"/>
	
		<linearGradient id="SVGID_12_" gradientUnits="userSpaceOnUse" x1="489.8438" y1="725.5615" x2="691.5005" y2="530.6945" gradientTransform="matrix(1 0 0 -1 0 1016)">
		<stop  offset="0" style="stop-color:#F0F4FF"/>
		<stop  offset="0.1086" style="stop-color:#EBEFF9"/>
		<stop  offset="0.2475" style="stop-color:#DCE0EA"/>
		<stop  offset="0.4028" style="stop-color:#C4C7CF"/>
		<stop  offset="0.5701" style="stop-color:#A2A4AB"/>
		<stop  offset="0.7469" style="stop-color:#76777C"/>
		<stop  offset="0.9291" style="stop-color:#414243"/>
		<stop  offset="1" style="stop-color:#2B2B2B"/>
	</linearGradient>
	<path fill="url(#SVGID_12_)" d="M519.39,343.566c72.339,1.286,130.712,59.654,132.006,131.988h2.423
		c-1.295-73.675-60.749-133.138-134.43-134.424L519.39,343.566L519.39,343.566z"/>
	<path fill="#C2D7E8" d="M382.287,475.536c1.285-72.432,59.742-130.884,132.175-132.175v-2.431
		c-73.782,1.29-133.312,60.833-134.606,134.606H382.287L382.287,475.536z"/>
	
		<linearGradient id="SVGID_13_" gradientUnits="userSpaceOnUse" x1="326.1655" y1="561.04" x2="527.826" y2="366.1694" gradientTransform="matrix(1 0 0 -1 0 1016)">
		<stop  offset="0" style="stop-color:#F0F4FF"/>
		<stop  offset="0.1086" style="stop-color:#EBEFF9"/>
		<stop  offset="0.2475" style="stop-color:#DCE0EA"/>
		<stop  offset="0.4028" style="stop-color:#C4C7CF"/>
		<stop  offset="0.5701" style="stop-color:#A2A4AB"/>
		<stop  offset="0.7469" style="stop-color:#76777C"/>
		<stop  offset="0.9291" style="stop-color:#414243"/>
		<stop  offset="1" style="stop-color:#2B2B2B"/>
	</linearGradient>
	<path fill="url(#SVGID_13_)" d="M514.525,612.414c-72.337-1.285-130.71-59.658-131.996-131.996h-2.431
		c1.295,73.679,60.75,133.145,134.429,134.43v-2.434H514.525z"/>
	<path fill="#12404F" d="M651.396,480.418c-1.294,72.338-59.668,130.711-132.006,131.996v2.434
		c73.68-1.285,133.143-60.75,134.428-134.43H651.396z"/>
	
		<linearGradient id="SVGID_14_" gradientUnits="userSpaceOnUse" x1="423.7227" y1="630.5244" x2="528.2894" y2="529.4784" gradientTransform="matrix(1 0 0 -1 0 1016)">
		<stop  offset="0" style="stop-color:#C2D7E8"/>
		<stop  offset="0.1337" style="stop-color:#BACFE1"/>
		<stop  offset="0.3425" style="stop-color:#A4BACD"/>
		<stop  offset="0.6001" style="stop-color:#8098AC"/>
		<stop  offset="0.894" style="stop-color:#4E697F"/>
		<stop  offset="1" style="stop-color:#3A566D"/>
	</linearGradient>
	<polygon fill="url(#SVGID_14_)" points="511.928,340.931 511.928,472.886 379.976,472.886 379.976,475.49 511.928,475.49 
		514.525,475.49 514.525,472.886 514.525,340.931 	"/>
	
		<linearGradient id="SVGID_15_" gradientUnits="userSpaceOnUse" x1="371.3521" y1="605.7656" x2="570.983" y2="412.8563" gradientTransform="matrix(1 0 0 -1 0 1016)">
		<stop  offset="0" style="stop-color:#F0F4FF"/>
		<stop  offset="0.0973" style="stop-color:#E8EBF6"/>
		<stop  offset="0.2568" style="stop-color:#D1D4DD"/>
		<stop  offset="0.4587" style="stop-color:#ABAEB5"/>
		<stop  offset="0.6951" style="stop-color:#78797D"/>
		<stop  offset="0.9578" style="stop-color:#363637"/>
		<stop  offset="1" style="stop-color:#2B2B2B"/>
	</linearGradient>
	<polygon fill="url(#SVGID_15_)" points="511.704,613.571 511.704,483.203 381.067,483.203 381.067,480.633 511.704,480.633 
		514.275,480.633 514.275,483.203 514.275,613.571 	"/>
	
		<linearGradient id="SVGID_16_" gradientUnits="userSpaceOnUse" x1="518.4922" y1="534.208" x2="588.5168" y2="466.5411" gradientTransform="matrix(1 0 0 -1 0 1016)">
		<stop  offset="0" style="stop-color:#D9DEF0"/>
		<stop  offset="0.1229" style="stop-color:#D4DAEC"/>
		<stop  offset="0.2629" style="stop-color:#C7CFE2"/>
		<stop  offset="0.4114" style="stop-color:#B0BCD1"/>
		<stop  offset="0.5657" style="stop-color:#90A1B8"/>
		<stop  offset="0.7246" style="stop-color:#677F99"/>
		<stop  offset="0.8849" style="stop-color:#355674"/>
		<stop  offset="0.9719" style="stop-color:#173D5D"/>
	</linearGradient>
	<polygon fill="url(#SVGID_16_)" points="522.175,613.571 522.175,483.203 652.543,483.203 652.543,480.633 522.175,480.633 
		519.613,480.633 519.613,483.203 519.613,613.571 	"/>
	
		<linearGradient id="SVGID_17_" gradientUnits="userSpaceOnUse" x1="446.8589" y1="678.9805" x2="646.2737" y2="486.2799" gradientTransform="matrix(1 0 0 -1 0 1016)">
		<stop  offset="0" style="stop-color:#F0F4FF"/>
		<stop  offset="0.1086" style="stop-color:#EBEFF9"/>
		<stop  offset="0.2475" style="stop-color:#DCE0EA"/>
		<stop  offset="0.4028" style="stop-color:#C4C7CF"/>
		<stop  offset="0.5701" style="stop-color:#A2A4AB"/>
		<stop  offset="0.7469" style="stop-color:#76777C"/>
		<stop  offset="0.9291" style="stop-color:#414243"/>
		<stop  offset="1" style="stop-color:#2B2B2B"/>
	</linearGradient>
	<polygon fill="url(#SVGID_17_)" points="522.175,342.095 522.175,472.462 652.543,472.462 652.543,475.029 522.175,475.029 
		519.613,475.029 519.613,472.462 519.613,342.095 	"/>
</g>
</svg>
